<svg width="1062" height="502" viewBox="0 0 1062 502" fill="none" xmlns="http://www.w3.org/2000/svg">
<path d="M166.375 119.15V5.45342C166.375 3.08857 163.766 1.6535 161.769 2.91955L1.39392 104.573C0.52597 105.123 0 106.079 0 107.106V261.461C0 262.498 0.535577 263.461 1.41634 264.008L161.791 363.688C163.79 364.93 166.375 363.493 166.375 361.14V247.328C166.375 246.325 165.874 245.389 165.039 244.832L73.4897 183.799C71.6764 182.59 71.7164 179.913 73.565 178.758L164.964 121.695C165.841 121.147 166.375 120.185 166.375 119.15Z" fill="#E93527" fill-opacity="0.69"/>
<path d="M166.375 119.15V5.45342C166.375 3.08857 163.766 1.6535 161.769 2.91955L1.39392 104.573C0.52597 105.123 0 106.079 0 107.106V261.461C0 262.498 0.535577 263.461 1.41634 264.008L161.791 363.688C163.79 364.93 166.375 363.493 166.375 361.14V247.328C166.375 246.325 165.873 245.389 165.039 244.832L73.4897 183.799C71.6764 182.59 71.7164 179.913 73.565 178.758L164.964 121.695C165.841 121.147 166.375 120.185 166.375 119.15Z" fill="#A3241B"/>
<path d="M166.375 119.146V5.45342C166.375 3.08857 163.766 1.6535 161.769 2.91955L1.39392 104.573C0.52597 105.123 0 106.079 0 107.106V225.89C0 224.853 0.535577 223.889 1.41634 223.342L164.958 121.694C165.839 121.147 166.375 120.183 166.375 119.146Z" fill="#E93527"/>
<path d="M166.375 119.15V5.45342C166.375 3.08857 163.766 1.6535 161.769 2.91955L1.39392 104.573C0.52597 105.123 0 106.079 0 107.106V261.461C0 262.498 0.535577 263.461 1.41634 264.008L161.791 363.688C163.79 364.93 166.375 363.493 166.375 361.14V247.328C166.375 246.325 165.874 245.389 165.039 244.832L73.4897 183.799C71.6764 182.59 71.7164 179.913 73.565 178.758L164.964 121.695C165.841 121.147 166.375 120.185 166.375 119.15Z" fill="#E93527" fill-opacity="0.69"/>
<path d="M166.375 119.15V5.45342C166.375 3.08857 163.766 1.6535 161.769 2.91955L1.39392 104.573C0.52597 105.123 0 106.079 0 107.106V261.461C0 262.498 0.535577 263.461 1.41634 264.008L161.791 363.688C163.79 364.93 166.375 363.493 166.375 361.14V247.328C166.375 246.325 165.873 245.389 165.039 244.832L73.4897 183.799C71.6764 182.59 71.7164 179.913 73.565 178.758L164.964 121.695C165.841 121.147 166.375 120.185 166.375 119.15Z" fill="#A3241B"/>
<path d="M166.375 119.146V5.45342C166.375 3.08857 163.766 1.6535 161.769 2.91955L1.39392 104.573C0.52597 105.123 0 106.079 0 107.106V225.89C0 224.853 0.535577 223.889 1.41634 223.342L164.958 121.694C165.839 121.147 166.375 120.183 166.375 119.146Z" fill="#E93527"/>
<path d="M166.375 119.15V5.45342C166.375 3.08857 163.766 1.6535 161.769 2.91955L1.39392 104.573C0.52597 105.123 0 106.079 0 107.106V261.461C0 262.498 0.535577 263.461 1.41634 264.008L161.791 363.688C163.79 364.93 166.375 363.493 166.375 361.14V247.328C166.375 246.325 165.874 245.389 165.039 244.832L73.4897 183.799C71.6764 182.59 71.7164 179.913 73.565 178.758L164.964 121.695C165.841 121.147 166.375 120.185 166.375 119.15Z" fill="#E93527" fill-opacity="0.69"/>
<path d="M166.375 119.15V5.45342C166.375 3.08857 163.766 1.6535 161.769 2.91955L1.39392 104.573C0.52597 105.123 0 106.079 0 107.106V261.461C0 262.498 0.535577 263.461 1.41634 264.008L161.791 363.688C163.79 364.93 166.375 363.493 166.375 361.14V247.328C166.375 246.325 165.873 245.389 165.039 244.832L73.4897 183.799C71.6764 182.59 71.7164 179.913 73.565 178.758L164.964 121.695C165.841 121.147 166.375 120.185 166.375 119.15Z" fill="#A8391D"/>
<path d="M166.375 119.146V5.45342C166.375 3.08857 163.766 1.6535 161.769 2.91955L1.39392 104.573C0.52597 105.123 0 106.079 0 107.106V225.89C0 224.853 0.535577 223.889 1.41634 223.342L164.958 121.694C165.839 121.147 166.375 120.183 166.375 119.146Z" fill="#FC4314"/>
<path d="M216 223.336V168.925C216 166.566 218.597 165.13 220.595 166.384L377.095 264.618C377.969 265.167 378.5 266.127 378.5 267.159V362.332C378.5 363.369 377.964 364.333 377.084 364.88L220.584 462.151C218.585 463.393 216 461.956 216 459.603V348.606C216 347.602 216.501 346.666 217.336 346.109L306.632 286.579C308.445 285.37 308.405 282.692 306.556 281.538L217.411 225.881C216.533 225.333 216 224.371 216 223.336Z" fill="#E93527" fill-opacity="0.69"/>
<path d="M216 223.336V160.053C216 157.668 218.649 156.236 220.644 157.544L377.144 260.112C377.99 260.666 378.5 261.609 378.5 262.621V362.332C378.5 363.369 377.964 364.333 377.084 364.88L220.584 462.151C218.585 463.393 216 461.956 216 459.603V348.606C216 347.602 216.501 346.666 217.336 346.109L306.632 286.579C308.445 285.37 308.405 282.692 306.556 281.538L217.411 225.881C216.533 225.333 216 224.371 216 223.336Z" fill="#A8391D"/>
<path d="M216 260.332V149.453C216 147.089 218.609 145.653 220.606 146.92L377.106 246.116C377.974 246.667 378.5 247.623 378.5 248.65V364.668C378.5 363.631 377.964 362.667 377.084 362.12L217.416 262.88C216.536 262.333 216 261.369 216 260.332Z" fill="#FC4314"/>
<path d="M216 260.332V149.453C216 147.089 218.609 145.653 220.606 146.92L377.106 246.116C377.974 246.667 378.5 247.623 378.5 248.65V364.668C378.5 363.631 377.964 362.667 377.084 362.12L217.416 262.88C216.536 262.333 216 261.369 216 260.332Z" fill="#FC4314"/>
<path d="M250.49 378.639L295.06 348.729C295.28 348.579 295.55 348.559 295.79 348.659L313.34 356.029C313.83 356.239 313.97 356.859 313.62 357.259L219.88 462.739C219.31 463.379 218.27 462.749 218.58 461.949L250.21 379.009C250.27 378.859 250.37 378.729 250.5 378.639H250.49Z" fill="#A3241B"/>
<path d="M355.239 107.791L307.659 81.3906L230.359 149.761L355.239 107.791Z" fill="#FFCDCA"/>
<path d="M354.469 109.811L220.089 462.221C219.859 462.811 219.159 463.061 218.609 462.741L166.499 431.831C166.049 431.571 165.879 431.011 166.089 430.541L299.959 126.721C300.079 126.461 300.299 126.251 300.569 126.161L353.189 108.471C354.009 108.191 354.779 109.001 354.469 109.801V109.811Z" fill="#FFB2AC"/>
<path d="M391.589 13L327.889 55.07C327.889 55.07 354.769 106.55 421.749 41.13L391.599 13H391.589Z" fill="white"/>
<path d="M250.489 378.64L295.059 348.73C295.279 348.58 295.549 348.56 295.789 348.66L313.339 356.03C313.829 356.24 313.969 356.86 313.619 357.26L219.879 462.74C219.309 463.38 218.269 462.75 218.579 461.95L250.209 379.01C250.269 378.86 250.369 378.73 250.499 378.64H250.489Z" fill="#A3241B"/>
<path d="M355.239 107.79L307.659 81.39L230.359 149.76L355.239 107.79Z" fill="#FFCDCA"/>
<path d="M354.469 109.81L220.089 462.22C219.859 462.81 219.159 463.06 218.609 462.74L166.499 431.83C166.049 431.57 165.879 431.01 166.089 430.54L299.959 126.72C300.079 126.46 300.299 126.25 300.569 126.16L353.189 108.47C354.009 108.19 354.779 109 354.469 109.8V109.81Z" fill="#FFB2AC"/>
<path d="M391.589 13L327.889 55.07C327.889 55.07 354.769 106.55 421.749 41.13L391.599 13H391.589Z" fill="white"/>
<path d="M250.489 378.64L295.059 348.73C295.279 348.58 295.549 348.56 295.789 348.66L313.339 356.03C313.829 356.24 313.969 356.86 313.619 357.26L219.879 462.74C219.309 463.38 218.269 462.75 218.579 461.95L250.209 379.01C250.269 378.86 250.369 378.73 250.499 378.64H250.489Z" fill="#A8391D"/>
<path d="M355.239 107.79L307.659 81.39L230.359 149.76L355.239 107.79Z" fill="#FFD5CA"/>
<path d="M354.469 109.81L220.089 462.22C219.859 462.81 219.159 463.06 218.609 462.74L166.499 431.83C166.049 431.57 165.879 431.01 166.089 430.54L299.959 126.72C300.079 126.46 300.299 126.25 300.569 126.16L353.189 108.47C354.009 108.19 354.779 109 354.469 109.8V109.81Z" fill="#FFBFAE"/>
<path d="M391.589 13L327.889 55.07C327.889 55.07 354.769 106.55 421.749 41.13L391.599 13H391.589Z" fill="#FC4314"/>
<path d="M504.14 360V143H544.44V325.9H657.9V360H504.14ZM788.289 360V326.52L786.119 319.39V260.8C786.119 249.433 782.709 240.65 775.889 234.45C769.069 228.043 758.736 224.84 744.889 224.84C735.589 224.84 726.392 226.287 717.299 229.18C708.412 232.073 700.869 236.103 694.669 241.27L679.479 213.06C688.366 206.24 698.906 201.177 711.099 197.87C723.499 194.357 736.312 192.6 749.539 192.6C773.512 192.6 792.009 198.387 805.029 209.96C818.256 221.327 824.869 238.997 824.869 262.97V360H788.289ZM736.209 362.17C723.809 362.17 712.959 360.103 703.659 355.97C694.359 351.63 687.126 345.74 681.959 338.3C676.999 330.653 674.519 322.077 674.519 312.57C674.519 303.27 676.689 294.9 681.029 287.46C685.576 280.02 692.912 274.13 703.039 269.79C713.166 265.45 726.599 263.28 743.339 263.28H791.389V289.01H746.129C732.902 289.01 724.016 291.18 719.469 295.52C714.922 299.653 712.649 304.82 712.649 311.02C712.649 318.047 715.439 323.627 721.019 327.76C726.599 331.893 734.349 333.96 744.269 333.96C753.776 333.96 762.249 331.79 769.689 327.45C777.336 323.11 782.812 316.703 786.119 308.23L792.629 331.48C788.909 341.193 782.192 348.737 772.479 354.11C762.972 359.483 750.882 362.17 736.209 362.17ZM966.36 362.17C952.306 362.17 939.803 359.07 928.85 352.87C917.896 346.67 909.216 337.37 902.81 324.97C896.61 312.363 893.51 296.45 893.51 277.23C893.51 257.803 896.713 241.89 903.12 229.49C909.733 217.09 918.516 207.893 929.47 201.9C940.63 195.7 952.926 192.6 966.36 192.6C982.686 192.6 997.05 196.113 1009.45 203.14C1022.06 210.167 1031.98 219.983 1039.21 232.59C1046.65 245.197 1050.37 260.077 1050.37 277.23C1050.37 294.383 1046.65 309.263 1039.21 321.87C1031.98 334.477 1022.06 344.397 1009.45 351.63C997.05 358.657 982.686 362.17 966.36 362.17ZM874.6 360V129.98H913.35V232.9L910.25 276.92L911.49 320.94V360H874.6ZM962.02 329C971.32 329 979.586 326.933 986.82 322.8C994.26 318.667 1000.15 312.673 1004.49 304.82C1008.83 296.967 1011 287.77 1011 277.23C1011 266.483 1008.83 257.287 1004.49 249.64C1000.15 241.787 994.26 235.793 986.82 231.66C979.586 227.527 971.32 225.46 962.02 225.46C952.72 225.46 944.35 227.527 936.91 231.66C929.47 235.793 923.58 241.787 919.24 249.64C914.9 257.287 912.73 266.483 912.73 277.23C912.73 287.77 914.9 296.967 919.24 304.82C923.58 312.673 929.47 318.667 936.91 322.8C944.35 326.933 952.72 329 962.02 329Z" fill="white"/>
</svg>
